<mxfile host="app.diagrams.net" modified="2024-02-19T10:20:15.891Z" agent="Mozilla/5.0 (Windows NT 10.0; Win64; x64) AppleWebKit/537.36 (KHTML, like Gecko) Chrome/121.0.0.0 Safari/537.36 Edg/121.0.0.0" etag="A2x3jGpZEWvYSmlYgwy5" version="22.1.18" type="device">
  <diagram name="Сторінка-1" id="R46Jq-1bKAJgVEEztzpU">
    <mxGraphModel dx="861" dy="502" grid="1" gridSize="10" guides="1" tooltips="1" connect="1" arrows="1" fold="1" page="1" pageScale="1" pageWidth="827" pageHeight="1169" math="0" shadow="0">
      <root>
        <mxCell id="0" />
        <mxCell id="1" parent="0" />
        <mxCell id="bi4NqQoBAonQdZvO8vRn-3" value="4" style="ellipse;whiteSpace=wrap;html=1;aspect=fixed;strokeWidth=2;shadow=0;fontSize=35;" vertex="1" parent="1">
          <mxGeometry x="490" y="250" width="80" height="80" as="geometry" />
        </mxCell>
        <mxCell id="bi4NqQoBAonQdZvO8vRn-9" style="edgeStyle=orthogonalEdgeStyle;rounded=0;orthogonalLoop=1;jettySize=auto;html=1;entryX=0;entryY=0.5;entryDx=0;entryDy=0;exitX=0.5;exitY=1;exitDx=0;exitDy=0;strokeWidth=2;shadow=0;fontSize=35;" edge="1" parent="1" source="bi4NqQoBAonQdZvO8vRn-4" target="bi4NqQoBAonQdZvO8vRn-3">
          <mxGeometry relative="1" as="geometry" />
        </mxCell>
        <mxCell id="bi4NqQoBAonQdZvO8vRn-12" style="edgeStyle=orthogonalEdgeStyle;rounded=0;orthogonalLoop=1;jettySize=auto;html=1;entryX=0;entryY=0.5;entryDx=0;entryDy=0;strokeWidth=2;shadow=0;fontSize=35;" edge="1" parent="1" source="bi4NqQoBAonQdZvO8vRn-4" target="bi4NqQoBAonQdZvO8vRn-5">
          <mxGeometry relative="1" as="geometry" />
        </mxCell>
        <mxCell id="bi4NqQoBAonQdZvO8vRn-4" value="2" style="ellipse;whiteSpace=wrap;html=1;aspect=fixed;strokeWidth=2;shadow=0;fontSize=35;" vertex="1" parent="1">
          <mxGeometry x="260" y="130" width="80" height="80" as="geometry" />
        </mxCell>
        <mxCell id="bi4NqQoBAonQdZvO8vRn-10" style="edgeStyle=orthogonalEdgeStyle;rounded=0;orthogonalLoop=1;jettySize=auto;html=1;strokeWidth=2;shadow=0;fontSize=35;" edge="1" parent="1" source="bi4NqQoBAonQdZvO8vRn-5" target="bi4NqQoBAonQdZvO8vRn-3">
          <mxGeometry relative="1" as="geometry" />
        </mxCell>
        <mxCell id="bi4NqQoBAonQdZvO8vRn-5" value="3" style="ellipse;whiteSpace=wrap;html=1;aspect=fixed;strokeWidth=2;shadow=0;fontSize=35;" vertex="1" parent="1">
          <mxGeometry x="490" y="130" width="80" height="80" as="geometry" />
        </mxCell>
        <mxCell id="bi4NqQoBAonQdZvO8vRn-7" style="edgeStyle=orthogonalEdgeStyle;rounded=0;orthogonalLoop=1;jettySize=auto;html=1;entryX=0.5;entryY=0;entryDx=0;entryDy=0;strokeWidth=2;shadow=0;fontSize=35;" edge="1" parent="1" source="bi4NqQoBAonQdZvO8vRn-6" target="bi4NqQoBAonQdZvO8vRn-4">
          <mxGeometry relative="1" as="geometry" />
        </mxCell>
        <mxCell id="bi4NqQoBAonQdZvO8vRn-6" value="1" style="ellipse;whiteSpace=wrap;html=1;aspect=fixed;strokeWidth=2;shadow=0;fontSize=35;" vertex="1" parent="1">
          <mxGeometry x="374" y="10" width="80" height="80" as="geometry" />
        </mxCell>
        <mxCell id="bi4NqQoBAonQdZvO8vRn-8" style="edgeStyle=orthogonalEdgeStyle;rounded=0;orthogonalLoop=1;jettySize=auto;html=1;entryX=0.5;entryY=0;entryDx=0;entryDy=0;strokeWidth=2;shadow=0;fontSize=35;" edge="1" parent="1" source="bi4NqQoBAonQdZvO8vRn-6" target="bi4NqQoBAonQdZvO8vRn-5">
          <mxGeometry relative="1" as="geometry" />
        </mxCell>
      </root>
    </mxGraphModel>
  </diagram>
</mxfile>
